<?xml version="1.0" encoding="UTF-8"?>
<svg id="Capa_2" xmlns="http://www.w3.org/2000/svg" viewBox="0 0 1487.51 237.45">
  <defs>
    <style>
      .cls-1 {
        fill: #fff;
      }

      .cls-2 {
        fill: #00b577;
      }
    </style>
  </defs>
  <g id="Capa_1-2" data-name="Capa_1">
    <rect class="cls-1" y="24.58" width="237.45" height="194.04"/>
    <g>
      <path class="cls-2" d="M50.29,161.95l3.63-25.92,64.61-33.01,38.23,18.91,2.46,28.23c6.03,3.82,11.53,8.34,16.36,13.31,3.41-.65,6.92-1.55,10.52-1.55,22.94,0,42.66,14.32,51.35,34.01V11.97c0-3.3-1.34-6.28-3.52-8.45-2.16-2.18-5.16-3.52-8.45-3.52H11.97c-2.24,0-4.32.62-6.12,1.69C2.35,3.79,0,7.62,0,11.97v183.96c8.57-19.41,27.81-33.55,50.29-33.99ZM183.99,131.58l-65.44-33.69v-33.61l61.5,40.21,3.94,27.1ZM62.11,77.73l56.44-45.74,57.56,45.32,3.44,23.66-61-40.93-59.75,41.36,3.31-23.66ZM58.31,104.91l25.69-17.32-2.49,30.06-27,14.34,3.8-27.08Z"/>
      <path class="cls-2" d="M189.44,172.39c-3.77,0-7.46.35-11.04.99-15.11-14.83-36.5-24.05-59.92-24.05s-44.32,9.21-59.43,24.05c-3.58-.65-7.27-.99-11.04-.99-19.81,0-37.31,9.3-48,23.55v29.54c0,1.66.33,3.22.95,4.65,1.81,4.29,6.09,7.32,11.03,7.32h213.52c3.3,0,6.28-1.34,8.44-3.52,2.18-2.16,3.52-5.16,3.52-8.45v-29.54c-10.69-14.25-28.22-23.56-48.01-23.56Z"/>
    </g>
    <g>
      <path class="cls-2" d="M330.74,18.37v71.33h91.71V18.37h27.42v169.83h-27.42v-72.54h-91.71v72.54h-27.42V18.37h27.42Z"/>
      <path class="cls-2" d="M585.24,71.99v116.21h-25.35v-13.95c-8.82,11.32-20.99,16.98-36.51,16.98-16.42,0-30.21-5.78-41.37-17.35-11.16-11.56-16.74-26.16-16.74-43.79s5.58-32.23,16.74-43.79c11.16-11.56,24.95-17.35,41.37-17.35,15.53,0,27.7,5.7,36.51,17.1v-14.07h25.35ZM526.41,92.85c-10.6,0-19.09,3.58-25.47,10.74-6.39,7.16-9.58,15.99-9.58,26.51s3.19,19.35,9.58,26.5c6.39,7.16,14.88,10.74,25.47,10.74s18.78-3.52,25.29-10.55c6.51-7.04,9.77-15.93,9.77-26.69s-3.26-19.65-9.77-26.69c-6.51-7.04-14.94-10.55-25.29-10.55Z"/>
      <path class="cls-2" d="M667.6,68.96c16.42,0,30.21,5.78,41.37,17.35,11.16,11.57,16.74,26.16,16.74,43.79s-5.58,32.23-16.74,43.79c-11.16,11.57-24.95,17.35-41.37,17.35-15.45,0-27.58-5.62-36.39-16.86v62.35h-25.35V71.99h25.35v13.83c8.81-11.24,20.94-16.86,36.39-16.86ZM664.57,92.85c-10.35,0-18.78,3.52-25.29,10.55-6.51,7.04-9.77,15.93-9.77,26.69s3.25,19.65,9.77,26.69c6.51,7.04,14.94,10.55,25.29,10.55s19.09-3.58,25.47-10.74c6.39-7.16,9.58-15.99,9.58-26.5s-3.2-19.35-9.58-26.51c-6.39-7.16-14.88-10.74-25.47-10.74Z"/>
      <path class="cls-2" d="M799.71,68.96c16.42,0,30.21,5.78,41.37,17.35,11.16,11.57,16.74,26.16,16.74,43.79s-5.58,32.23-16.74,43.79c-11.16,11.57-24.95,17.35-41.37,17.35-15.45,0-27.58-5.62-36.39-16.86v62.35h-25.35V71.99h25.35v13.83c8.81-11.24,20.94-16.86,36.39-16.86ZM796.67,92.85c-10.35,0-18.78,3.52-25.29,10.55-6.51,7.04-9.77,15.93-9.77,26.69s3.25,19.65,9.77,26.69c6.51,7.04,14.94,10.55,25.29,10.55s19.09-3.58,25.47-10.74c6.39-7.16,9.58-15.99,9.58-26.5s-3.2-19.35-9.58-26.51c-6.39-7.16-14.88-10.74-25.47-10.74Z"/>
      <path class="cls-2" d="M978.27,71.99l-91.71,165.46h-28.14l41.61-73.15-51.56-92.31h28.51l37.36,66.72,36.03-66.72h27.9Z"/>
      <path class="cls-2" d="M1011.02,18.37v71.33h91.71V18.37h27.41v169.83h-27.41v-72.54h-91.71v72.54h-27.41V18.37h27.41Z"/>
      <path class="cls-2" d="M1190.73,26.62c13.54-7.6,28.89-11.4,46.04-11.4s32.49,3.8,46.04,11.4c13.54,7.6,24.08,18.1,31.6,31.48,7.52,13.39,11.28,28.45,11.28,45.19s-3.76,31.8-11.28,45.19c-7.52,13.39-18.06,23.88-31.6,31.48-13.55,7.6-28.89,11.4-46.04,11.4s-32.49-3.8-46.04-11.4c-13.55-7.6-24.08-18.09-31.6-31.48-7.52-13.38-11.28-28.45-11.28-45.19s3.76-31.8,11.28-45.19c7.52-13.38,18.05-23.88,31.6-31.48ZM1279.95,58.77c-11.32-11.48-25.72-17.23-43.18-17.23s-31.86,5.74-43.19,17.23c-11.32,11.48-16.98,26.32-16.98,44.52s5.66,33.04,16.98,44.52c11.32,11.49,25.72,17.23,43.19,17.23s31.86-5.74,43.18-17.23c11.32-11.48,16.98-26.32,16.98-44.52s-5.66-33.04-16.98-44.52Z"/>
      <path class="cls-2" d="M1420.43,18.37l67.08,169.83h-29.48l-16.74-43.31h-76.91l-16.74,43.31h-28.51l67.08-169.83h34.21ZM1402.84,45.67l-28.39,73.27h56.77l-28.39-73.27Z"/>
    </g>
  </g>
</svg>